<?xml version="1.0" encoding="utf-8"?>
<!-- Generator: Adobe Illustrator 16.0.4, SVG Export Plug-In . SVG Version: 6.00 Build 0)  -->
<!DOCTYPE svg PUBLIC "-//W3C//DTD SVG 1.1//EN" "http://www.w3.org/Graphics/SVG/1.1/DTD/svg11.dtd">
<svg version="1.1" id="Layer_1" xmlns="http://www.w3.org/2000/svg" xmlns:xlink="http://www.w3.org/1999/xlink" x="0px" y="0px"
	 width="195.591px" height="195.591px" viewBox="0 0 195.591 195.591" enable-background="new 0 0 195.591 195.591"
	 xml:space="preserve">
<polygon fill="#CBBFAD" points="196.771,45 196.771,148.803 0,131.502 0,62.301 "/>
<g>
	<defs>
		<rect id="SVGID_1_" x="17.3" y="79.537" width="144.87" height="34.729"/>
	</defs>
	<clipPath id="SVGID_2_">
		<use xlink:href="#SVGID_1_"  overflow="visible"/>
	</clipPath>
	<path clip-path="url(#SVGID_2_)" fill="#FFFFFF" d="M36.692,99.662c0,2.281-0.239,4.119-1.988,5.76
		c-1.562,1.466-3.472,1.978-5.38,2.142c-1.668,0.146-3.842-0.106-5.247-1.095c-1.934-1.396-2.306-3.461-2.306-6.096V85.844
		l5.673,0.474v13.165c0,0.707-0.028,1.662,0.343,2.297c0.426,0.653,1.273,0.889,1.988,0.856c0.637-0.03,1.432-0.272,1.908-0.772
		c0.717-0.711,0.636-1.771,0.636-2.719V86.724l4.373,0.364V99.662z"/>
	<path clip-path="url(#SVGID_2_)" fill="#FFFFFF" d="M43.662,105.969l-5.248,0.433V93.26l5.248,0.164V105.969z M43.662,91.998
		l-5.248-0.23v-4.535l5.248,0.438V91.998z"/>
	<polygon clip-path="url(#SVGID_2_)" fill="#FFFFFF" points="54.129,105.189 48.828,105.632 48.828,92.318 45.012,92.152 
		45.012,87.783 57.866,88.855 57.866,92.709 54.129,92.548 	"/>
	<polygon clip-path="url(#SVGID_2_)" fill="#FFFFFF" points="17.3,80.02 73.375,80.02 73.375,113.783 17.3,113.783 62.16,108.155 
		62.16,85.646 	"/>
	<g opacity="0.5" clip-path="url(#SVGID_2_)">
		<g>
			<defs>
				<rect id="SVGID_3_" x="73.376" y="79.535" width="88.794" height="34.73"/>
			</defs>
			<clipPath id="SVGID_4_">
				<use xlink:href="#SVGID_3_"  overflow="visible"/>
			</clipPath>
			<g clip-path="url(#SVGID_4_)">
				<defs>
					<rect id="SVGID_5_" x="73.376" y="79.535" width="88.795" height="34.73"/>
				</defs>
				<clipPath id="SVGID_6_">
					<use xlink:href="#SVGID_5_"  overflow="visible"/>
				</clipPath>
				<path clip-path="url(#SVGID_6_)" fill="#878787" d="M131.915,103.985c1.82,7.331,8.117,10.28,15.201,10.28
					c6.985,0,15.054-3.246,15.054-11.363c0-3.689-1.722-6.837-5.018-8.607c-2.952-1.526-6.347-2.067-9.544-2.707
					c-1.28-0.295-3.739-0.64-3.739-2.41c0-1.771,1.967-2.164,3.347-2.164c2.605,0,4.476,0.885,5.46,3.395l8.56-2.607
					c-2.065-5.854-7.724-8.266-13.578-8.266c-3.345,0-6.936,0.639-9.69,2.559c-2.706,1.918-4.329,5.166-4.329,8.462
					c0,8.019,7.525,9.739,13.872,10.97c1.524,0.295,4.133,0.689,4.133,2.755c0,1.87-2.656,2.066-3.985,2.066
					c-3.001,0-5.264-1.082-6.149-4.083L131.915,103.985z M111.5,99.754l2.756-9.789l2.754,9.789H111.5z M120.699,113.775h10.577
					l-10.577-33.748h-10.921l-10.478,33.748h8.412l2.065-6.643h9.003L120.699,113.775z M83.854,94.295v-6.543h3.001
					c2.361,0,4.918,0.246,4.918,3.246c0,3.148-2.853,3.297-5.213,3.297H83.854z M83.854,101.525h5.264
					c3.247,0,6.592-0.492,9.199-2.607c2.508-2.018,3.738-5.066,3.738-8.265c0-3.64-1.868-6.985-5.018-8.854
					c-2.901-1.674-6.592-1.771-9.888-1.771H73.375v33.748h10.479V101.525z"/>
			</g>
		</g>
	</g>
</g>
</svg>
