<svg xmlns="http://www.w3.org/2000/svg" viewBox="0 0 52 46"><path d="M19.995 45.827c.36 0 .717-.115 1.015-.339l11.53-8.646h11.416c4.236 0 7.682-3.447 7.682-7.682V8.194c0-4.236-3.446-7.682-7.682-7.682H8.015C3.779.512.333 3.958.333 8.194V29.16c0 4.235 3.446 7.682 7.682 7.682h10.288v7.293a1.69 1.69 0 001.692 1.692zM43.956 3.896a4.303 4.303 0 014.298 4.298V29.16a4.303 4.303 0 01-4.298 4.298h-11.98a1.69 1.69 0 00-1.016.338l-9.273 6.955V35.15c0-.935-.757-1.692-1.692-1.692H8.015a4.303 4.303 0 01-4.298-4.298V8.194a4.303 4.303 0 014.298-4.298h35.941z" fill="#000" fill-rule="evenodd"/></svg>