<svg xmlns="http://www.w3.org/2000/svg" viewBox="0 0 53 32"><path d="M3.773 31.031h1.474c2.333 0 3.599-1.266 3.599-3.599V13.887l8.983 14.682c1.046 1.71 2.357 2.462 4.331 2.462h1.842c2.333 0 3.6-1.266 3.6-3.599V3.716c0-2.333-1.267-3.599-3.6-3.599h-1.445c-2.333 0-3.599 1.266-3.599 3.599v13.535L9.973 2.579C8.926.87 7.615.117 5.642.117H3.773c-2.333 0-3.6 1.266-3.6 3.599v23.716c0 2.333 1.267 3.599 3.6 3.599zm33.561 0h11.201c2.333 0 3.6-1.266 3.6-3.599v-.419c0-2.333-1.267-3.599-3.6-3.599h-6.127V3.716c0-2.333-1.267-3.599-3.6-3.599h-1.474c-2.333 0-3.599 1.266-3.599 3.599v23.716c0 2.333 1.266 3.599 3.599 3.599z" fill="#000" fill-rule="evenodd"/></svg>