<svg enable-background="new 0 0 30 18" height="18" viewBox="0 0 30 18" width="30" xmlns="http://www.w3.org/2000/svg"><g fill="#1d1d1b"><path d="m10.376 10.473c0 1.216-.13 2.195-1.063 3.069-.836.781-1.856 1.055-2.878 1.144-.89.077-2.055-.059-2.806-.585-1.034-.743-1.231-1.846-1.231-3.248v-7.748l3.032.253v7.02c0 .376-.014.885.184 1.223.228.35.681.475 1.066.456.339-.017.764-.146 1.019-.41.383-.381.339-.945.339-1.45v-6.624l2.34.195v6.705z"/><path d="m14.105 6.387-2.809-.124v-2.419l2.809.235z"/><path d="m14.105 13.834-2.809.23v-7.005l2.809.087z"/><path d="m19.702 13.418-2.833.236v-7.097l-2.042-.089v-2.329l6.874.572v2.054l-1.999-.086z"/><path d="m.002 0h29.997v18h-29.997l23.997-3v-11.999z"/></g></svg>