<svg xmlns="http://www.w3.org/2000/svg" width="141.73" height="56.69" viewBox="0 0 141.73 56.69"><path d="M69.949 1.513l-.756-.013c-5.71 0-11.122 2.187-15.237 6.156-4.126 3.979-6.506 9.328-6.701 15.06-.202 5.96 1.959 11.617 6.084 15.928l.106.11 15.78 15.78 14.761-14.832c4.432-4.432 6.977-9.933 7.168-15.49.409-12.101-9.104-22.284-21.205-22.699z" fill="#E83C56"/><path d="M59.041 24.216c1.364 0 1.915.583 1.915 1.839 0 1.257-.551 1.839-1.915 1.839h-.369c-.146 0-.229.076-.229.229v1.226c0 .153-.077.23-.23.23h-.858c-.146 0-.23-.084-.23-.23v-4.895c0-.152.077-.229.23-.238h1.686zm.045 2.36c.368 0 .551-.046.551-.521 0-.475-.184-.521-.551-.521h-.414c-.146 0-.229.077-.229.229v.582c0 .146.083.23.229.23h.414zM65.183 29.318c0 .169-.077.261-.229.261h-.858c-.145 0-.229-.077-.229-.23v-.665c0-.154-.077-.23-.23-.23h-.659c-.146 0-.23.076-.23.23v.665c0 .153-.077.23-.23.23h-.858c-.146 0-.229-.092-.229-.261v-3.248c0-.965.152-1.992 1.876-1.992s1.877 1.027 1.877 1.992v3.248zm-1.317-3.248c0-.368-.054-.552-.56-.552-.505 0-.559.184-.559.552v.834c0 .147.083.231.23.231h.659c.153-.007.23-.084.23-.237v-.828zM69.886 29.164c.107.2-.016.415-.253.415h-.873c-.077 0-.145-.038-.176-.107l-.796-1.54-.062-.038h-.306c-.138 0-.237.1-.237.237v1.211c0 .138-.099.237-.238.237h-.858c-.138 0-.238-.1-.238-.237v-4.888c0-.138.1-.238.238-.238h1.678c1.364 0 1.915.583 1.915 1.839 0 .713-.175 1.211-.582 1.502l-.023.1.811 1.507zm-2.467-3.63c-.138 0-.237.099-.237.237v.567c0 .138.1.238.237.238h.391c.368 0 .551-.046.551-.521 0-.474-.183-.521-.551-.521h-.391zM71.65 25.764c0-.153-.076-.229-.229-.229h-1.073c-.146 0-.229-.084-.229-.23v-.858c0-.153.084-.23.229-.23h3.924c.152 0 .229.077.229.23v.858c0 .146-.077.23-.229.23h-1.073c-.146 0-.229.077-.229.229v3.585c0 .146-.077.23-.23.23h-.857c-.146 0-.23-.084-.23-.23v-3.585zM78.779 27.855c0 .506-.107 1.861-1.924 1.861-1.815 0-1.923-1.355-1.923-1.861v-1.915c0-.506.107-1.862 1.923-1.862s1.924 1.356 1.924 1.862v1.915zm-1.317-1.509c0-.589-.039-.95-.606-.95-.566 0-.604.361-.604.95v1.104c0 .59.038.949.604.949.567 0 .606-.359.606-.949v-1.104zM82.848 24.216c.153 0 .229.077.229.23v.858c0 .146-.076.23-.229.23h-1.855c-.145 0-.229.077-.229.229v.245c0 .146.084.23.229.23h1.188c.153 0 .23.076.23.23v.858c0 .145-.077.229-.23.229h-1.188c-.145 0-.229.077-.229.23v.245c0 .146.084.23.229.23h1.855c.153 0 .229.076.229.229v.857c0 .153-.076.23-.229.23h-3.219c-.146 0-.229-.084-.229-.23v-4.903c0-.153.084-.23.229-.23h3.219zM56.616 11.802c-2.524 2.359-2.659 6.317-.3 8.842 1.197 1.282 2.808 1.946 4.433 1.983h6.386v-5.967c0-1.623-.479-3.275-1.676-4.557-2.36-2.524-6.317-2.659-8.843-.301m7.832 1.009c1.987 1.986 1.987 5.207.001 7.194-1.987 1.986-5.207 1.986-7.193 0-1.988-1.988-1.987-5.208 0-7.194 1.986-1.986 5.205-1.987 7.192 0" fill="#fff"/><path d="M58.167 14.814c.851 0 1.176.343 1.176 1.085 0 .154-.045.453-.231.655.186.086.322.312.322.593 0 .561-.249.833-1.1.833h-1.117c-.086 0-.136-.05-.136-.136v-2.89c0-.091.045-.136.136-.14h.95zm.109 2.523c.217 0 .326-.022.326-.234 0-.213-.1-.245-.317-.245h-.295c-.085 0-.135.045-.135.136v.208c0 .091.05.135.135.135h.286zm-.036-1.13c.216 0 .325-.027.325-.308 0-.281-.109-.308-.325-.308h-.245c-.086 0-.135.045-.135.135v.344c0 .091.049.136.135.136h.245zM62.115 17.736c.062.117-.009.245-.149.245h-.515l-.104-.063-.471-.91-.035-.022h-.182c-.082 0-.14.059-.14.139v.715c0 .082-.059.141-.14.141h-.507c-.081 0-.14-.06-.14-.141v-2.885c0-.082.059-.14.14-.14h.991c.806 0 1.131.344 1.131 1.085 0 .42-.104.714-.343.886l-.014.059.478.891zm-1.457-2.144c-.082 0-.14.059-.14.14v.334c0 .082.059.141.14.141h.23c.218 0 .327-.027.327-.308s-.109-.308-.327-.308h-.23zM63.028 14.814c.091 0 .135.045.135.135v1.773c0 .349.023.562.358.562.334 0 .357-.213.357-.562v-1.773c0-.09.051-.135.136-.135h.506c.091 0 .135.045.135.135v2.013c0 .299-.062 1.099-1.134 1.099-1.072 0-1.135-.8-1.135-1.099v-2.013c0-.09.05-.135.136-.135h.506zM70.883 16.497c1.56 0 2.189.666 2.189 2.102 0 1.437-.63 2.103-2.189 2.103h-.421c-.166 0-.263.088-.263.263v1.401c0 .176-.088.263-.264.263h-.98c-.166 0-.263-.096-.263-.263v-5.597c0-.175.088-.262.263-.271h1.928zm.053 2.698c.42 0 .63-.053.63-.596 0-.542-.21-.595-.63-.595h-.474c-.166 0-.263.087-.263.263v.666c0 .167.097.263.263.263h.474zM77.893 22.331c0 .193-.087.298-.262.298h-.981c-.166 0-.263-.087-.263-.263v-.761c0-.176-.087-.263-.263-.263h-.753c-.167 0-.263.087-.263.263v.761c0 .176-.088.263-.264.263h-.98c-.166 0-.263-.104-.263-.298v-3.714c0-1.103.176-2.277 2.146-2.277s2.145 1.174 2.145 2.277v3.714zm-1.506-3.715c0-.42-.062-.63-.639-.63-.579 0-.64.21-.64.63v.955c0 .166.096.263.263.263h.753c.176-.009.263-.097.263-.271v-.947zM81.781 18.669c-.176.035-.264-.044-.29-.22-.062-.359-.35-.586-.762-.586-.342 0-.552.201-.518.403.124.683 2.892.666 2.892 2.68 0 .263-.298 1.813-2.374 1.813-1.84 0-2.234-1.209-2.278-1.892-.008-.158.071-.254.229-.29l.989-.219c.176-.036.272.044.29.228.035.42.358.667.771.667.429 0 .745-.255.691-.492-.166-.744-2.803-.578-2.803-2.593-.009-.262.149-1.812 2.111-1.812 1.804 0 2.225 1.173 2.277 1.804.009.158-.07.254-.228.289l-.997.22zM57.332 32.07c.046.141.179.243.335.243.194 0 .353-.158.353-.351v-1.016c0-.079.064-.141.144-.141.077 0 .141.062.141.141v1.016c0 .351-.287.634-.637.634-.282 0-.522-.184-.604-.438-.024-.077.019-.157.09-.177.076-.026.155.015.178.089M58.704 31.959c.002-.35.273-.641.623-.641.333 0 .596.248.617.594v.013l-.002.022c-.008.062-.062.103-.133.103h-.814l.087.169c.054.062.156.107.245.115.092.008.203-.016.266-.064.054-.056.159-.048.192-.007.033.035.059.112 0 .166-.125.115-.276.168-.458.168-.35-.002-.621-.291-.623-.638m.278-.127h.723c-.026-.102-.156-.253-.379-.271-.217.011-.324.168-.344.271M61.056 32.232c.045-.062.135-.069.191-.021.067.057.182.115.282.113l.174-.049.046-.077-.007-.025-.034-.031-.205-.071h-.002l-.223-.066c-.069-.033-.13-.079-.177-.148l-.043-.161c0-.117.067-.217.151-.281.09-.061.197-.095.314-.095.177 0 .301.085.383.142.062.04.08.124.042.188-.042.062-.125.079-.189.036-.082-.054-.154-.095-.235-.095l-.154.046-.041.059.005.021.028.025.187.062.002.002h.003l.237.073c.069.031.138.08.182.151l.048.169c0 .126-.069.23-.161.297-.093.064-.208.102-.333.102-.2-.002-.353-.095-.455-.177-.054-.046-.062-.133-.016-.189M62.535 30.807c.079 0 .143.064.143.142v1.509c0 .076-.064.14-.143.14-.077 0-.141-.063-.141-.14v-1.509c0-.078.064-.142.141-.142M63.038 31.959c.003-.35.274-.641.624-.641.333 0 .596.248.616.594v.013l-.002.022c-.008.062-.061.103-.133.103h-.813l.087.169c.054.062.156.107.245.115.092.008.202-.016.267-.064.053-.056.158-.048.191-.007.033.035.059.112 0 .166-.125.115-.276.168-.458.168-.35-.002-.621-.291-.624-.638m.278-.127h.724c-.025-.102-.156-.253-.378-.271-.217.011-.325.168-.346.271M65.191 32.597c-.291 0-.532-.239-.532-.531v-.611c0-.071.061-.136.135-.136.077 0 .136.064.136.136v.611c0 .146.114.261.26.261.148 0 .266-.115.269-.261v-.611c0-.071.056-.136.133-.136.072 0 .138.064.138.136v.611c.001.291-.244.531-.539.531M66.829 31.46c0 .076-.067.14-.144.14h-.063v.714c.079 0 .14.063.14.144 0 .079-.062.14-.14.14-.156 0-.285-.127-.285-.283v-.715h-.073c-.08 0-.141-.063-.141-.14 0-.08.062-.142.141-.142h.073v-.37c0-.08.064-.142.144-.142.08 0 .142.062.142.142v.37h.063c.076 0 .143.062.143.142M67.085 31.959c.002-.35.273-.641.623-.641.333 0 .596.248.617.594v.013l-.003.022c-.008.062-.061.103-.132.103h-.814l.087.169c.053.062.155.107.245.115.093.008.203-.016.267-.064.053-.056.158-.048.192-.007.033.035.059.112 0 .166-.125.115-.276.168-.458.168-.351-.002-.622-.291-.624-.638m.278-.127h.724c-.025-.102-.156-.253-.379-.271-.217.011-.324.168-.345.271M68.89 30.807c.079 0 .143.064.143.142v1.509c0 .076-.064.14-.143.14-.077 0-.141-.063-.141-.14v-1.509c.001-.078.064-.142.141-.142M70.712 31.46c0 .076-.067.14-.144.14h-.064v.714c.08 0 .141.063.141.144 0 .079-.061.14-.141.14-.156 0-.284-.127-.284-.283v-.715h-.074c-.079 0-.141-.063-.141-.14 0-.08.062-.142.141-.142h.074v-.37c0-.08.064-.142.144-.142s.141.062.141.142v.37h.064c.076 0 .143.062.143.142M71.237 32.41c-.108-.112-.175-.271-.175-.45 0-.173.066-.324.175-.447.116-.12.265-.194.44-.194.169 0 .322.074.428.194.114.123.179.274.179.447 0 .18-.064.338-.179.45-.105.121-.259.194-.428.194-.175 0-.323-.073-.44-.194m.104-.45c0 .111.032.2.091.271.064.062.148.095.246.095.091 0 .171-.033.236-.095.063-.071.1-.16.1-.271 0-.104-.036-.196-.1-.266-.065-.056-.146-.098-.236-.098-.098 0-.182.042-.246.098-.059.07-.091.161-.091.266M73.245 31.46c0 .076-.065.14-.143.14h-.063v.714c.079 0 .141.063.141.144 0 .079-.062.14-.141.14-.156 0-.284-.127-.284-.283v-.715h-.074c-.079 0-.141-.063-.141-.14 0-.08.062-.142.141-.142h.074v-.37c0-.08.063-.142.144-.142.079 0 .141.062.141.142v.37h.063c.077 0 .142.062.142.142" fill="#fff"/><path d="M74.489 32.457v-1.509c0-.08.064-.142.141-.142h.363c.27 0 .487.218.487.486 0 .11-.036.21-.098.291.152.099.258.27.258.463 0 .305-.245.55-.547.55h-.453l-.002-.002-.008.002c-.076.001-.141-.063-.141-.139m.284-.957h.219c.113 0 .203-.094.203-.207 0-.112-.09-.202-.203-.202h-.219v.409zm0 .813h.319c.146-.002.263-.118.263-.267 0-.146-.117-.26-.263-.263h-.319v.53zM76.768 31.454c0 .072-.059.136-.135.136l-.153.048-.118.124-.105.214v.486c0 .074-.063.135-.141.135-.074 0-.136-.061-.136-.135v-1.008c0-.074.062-.133.136-.133.077 0 .141.059.141.133v.019l.054-.051c.085-.057.195-.104.323-.101.075 0 .134.059.134.133M77.609 32.597c-.291 0-.532-.239-.532-.531v-.611c0-.071.061-.136.136-.136.076 0 .135.064.135.136v.611c0 .146.115.261.262.261.147 0 .266-.115.269-.261v-.611c0-.071.056-.136.132-.136.072 0 .139.064.139.136v.611c-.002.291-.247.531-.541.531M78.609 32.232c.046-.062.136-.069.191-.021.067.057.182.115.281.113l.175-.049.046-.077-.008-.025-.034-.031-.203-.071h-.003l-.223-.066c-.069-.033-.131-.079-.177-.148l-.043-.161c0-.117.066-.217.15-.281.09-.061.196-.095.315-.095.175 0 .301.085.383.142.061.04.079.124.04.188-.04.062-.124.079-.188.036-.082-.054-.153-.095-.234-.095l-.154.046-.041.059.005.021.028.025.187.062.003.002h.003l.236.073c.07.031.14.08.183.151l.049.169c0 .126-.069.23-.161.297-.092.064-.207.102-.333.102-.199-.002-.353-.095-.455-.177-.056-.046-.065-.133-.018-.189M79.843 32.232c.046-.062.135-.069.19-.021.068.057.183.115.282.113l.174-.049.046-.077-.008-.025-.034-.031-.204-.071h-.002l-.223-.066c-.069-.033-.13-.079-.176-.148l-.044-.161c0-.117.066-.217.15-.281.09-.061.197-.095.315-.095.177 0 .302.085.384.142.061.04.078.124.04.188-.04.062-.125.079-.189.036-.081-.054-.153-.095-.234-.095l-.153.046-.042.059.006.021.028.025.186.062.003.002h.003l.237.073c.07.031.139.08.182.151l.049.169c0 .126-.068.23-.16.297-.093.064-.208.102-.333.102-.2-.002-.354-.095-.455-.177-.057-.046-.065-.133-.018-.189M81.072 31.959c.002-.35.273-.641.624-.641.332 0 .596.248.616.594v.013l-.002.022c-.008.062-.062.103-.133.103h-.813l.086.169c.054.062.156.107.246.115.092.008.201-.016.266-.064.055-.056.159-.048.191-.007.034.035.06.112 0 .166-.125.115-.275.168-.457.168-.35-.002-.622-.291-.624-.638m.279-.127h.725c-.026-.102-.156-.253-.379-.271-.218.011-.326.168-.346.271M82.878 30.807c.079 0 .143.064.143.142v1.509c0 .076-.063.14-.143.14-.076 0-.141-.063-.141-.14v-1.509c0-.078.065-.142.141-.142" fill="#fff"/></svg>