<?xml version="1.0" encoding="iso-8859-1"?>
<!-- Generator: Adobe Illustrator 16.0.4, SVG Export Plug-In . SVG Version: 6.00 Build 0)  -->
<!DOCTYPE svg PUBLIC "-//W3C//DTD SVG 1.1//EN" "http://www.w3.org/Graphics/SVG/1.1/DTD/svg11.dtd">
<svg version="1.1" id="Layer_1" xmlns="http://www.w3.org/2000/svg" xmlns:xlink="http://www.w3.org/1999/xlink" x="0px" y="0px"
	 width="12px" height="15px" viewBox="0 0 12 15" style="enable-background:new 0 0 12 15;" xml:space="preserve">
<g id="Layer_1_1_">
	<g>
		<path d="M5.573,12.146C3.052,12.146,1,10.095,1,7.574C1,5.051,3.052,3,5.573,3c2.03,0,3.838,1.361,4.397,3.312
			c0.042,0.149-0.022,0.311-0.157,0.387L6.996,8.284L9.67,8.346C9.773,8.348,9.871,8.398,9.933,8.48
			c0.062,0.084,0.083,0.19,0.056,0.291C9.45,10.758,7.634,12.146,5.573,12.146z M5.573,3.675c-2.149,0-3.897,1.749-3.897,3.899
			c0,2.148,1.748,3.896,3.897,3.896c1.611,0,3.042-0.992,3.625-2.462L5.751,8.933C5.6,8.929,5.469,8.824,5.432,8.677
			c-0.038-0.147,0.03-0.301,0.163-0.376L9.24,6.246C8.687,4.719,7.215,3.675,5.573,3.675z"/>
	</g>
	<g>
		<path d="M7.296,5.176c0,0.512-0.416,0.928-0.928,0.928S5.441,5.688,5.441,5.176c0-0.512,0.416-0.927,0.927-0.927
			S7.296,4.664,7.296,5.176"/>
	</g>
</g>
</svg>
