<?xml version="1.0" encoding="iso-8859-1"?>
<!-- Generator: Adobe Illustrator 16.0.4, SVG Export Plug-In . SVG Version: 6.00 Build 0)  -->
<!DOCTYPE svg PUBLIC "-//W3C//DTD SVG 1.1//EN" "http://www.w3.org/Graphics/SVG/1.1/DTD/svg11.dtd">
<svg version="1.1" id="Layer_1" xmlns="http://www.w3.org/2000/svg" xmlns:xlink="http://www.w3.org/1999/xlink" x="0px" y="0px"
	 width="32px" height="32px" viewBox="0 0 32 32" style="enable-background:new 0 0 32 32;" xml:space="preserve">
<g id="Layer_1_1_">
	<polygon style="fill:#1D1D1B;" points="32,7.966 32,24.966 0,22.132 0,10.799 	"/>
	<g>
		<path style="fill:#FFFFFF;" d="M6.154,16.918c0,0.374-0.039,0.675-0.323,0.943c-0.254,0.24-0.564,0.322-0.875,0.352
			c-0.271,0.023-0.625-0.02-0.853-0.181c-0.315-0.228-0.376-0.567-0.376-0.997v-2.38l0.923,0.077v2.157
			c0,0.115-0.005,0.271,0.055,0.375c0.07,0.106,0.208,0.146,0.324,0.141c0.104-0.004,0.232-0.045,0.311-0.127
			c0.116-0.115,0.104-0.289,0.104-0.445v-2.034l0.711,0.06L6.154,16.918L6.154,16.918z"/>
		<path style="fill:#FFFFFF;" d="M7.286,17.95l-0.853,0.071v-2.153l0.853,0.027V17.95z M7.286,15.662l-0.853-0.037v-0.743
			l0.853,0.071V15.662z"/>
		<polygon style="fill:#FFFFFF;" points="8.989,17.823 8.127,17.895 8.127,15.714 7.506,15.688 7.506,14.972 9.597,15.148 
			9.597,15.779 8.989,15.752 		"/>
		<polygon style="fill:#FFFFFF;" points="3,13.7 12,13.7 12,19.159 3,19.159 10.201,18.249 10.201,14.611 		"/>
	</g>
	<path style="fill:#FFFFFF;" d="M22.521,17.626c0.297,1.201,1.32,1.685,2.472,1.685c1.137,0,2.448-0.531,2.448-1.86
		c0-0.604-0.277-1.121-0.814-1.411c-0.48-0.25-1.033-0.338-1.553-0.442c-0.209-0.048-0.608-0.104-0.608-0.396
		c0-0.289,0.32-0.354,0.543-0.354c0.425,0,0.729,0.145,0.89,0.555l1.394-0.427c-0.337-0.959-1.257-1.354-2.208-1.354
		c-0.544,0-1.13,0.104-1.577,0.418c-0.438,0.314-0.704,0.847-0.704,1.387c0,1.313,1.225,1.594,2.256,1.795
		c0.248,0.049,0.674,0.114,0.674,0.452c0,0.308-0.434,0.338-0.647,0.338c-0.489,0-0.856-0.177-1.001-0.668L22.521,17.626z"/>
	<g>
		<path style="fill:#FFFFFF;" d="M20.695,13.702h-1.774l-1.704,5.526h1.368l0.336-1.088h1.465l0.312,1.088h1.721L20.695,13.702z
			 M19.2,16.934l0.448-1.604l0.449,1.604H19.2z"/>
	</g>
	<g>
		<path style="fill:#FFFFFF;" d="M16.85,13.991c-0.473-0.272-1.073-0.289-1.608-0.289H13v5.526h1.706v-2.006h0.854
			c0.529,0,1.071-0.08,1.497-0.427c0.407-0.332,0.607-0.831,0.607-1.354C17.665,14.847,17.361,14.299,16.85,13.991z M15.145,16.039
			h-0.438v-1.071h0.486c0.384,0,0.8,0.041,0.8,0.532C15.992,16.015,15.529,16.039,15.145,16.039z"/>
	</g>
</g>
<g id="nyt_x5F_exporter_x5F_info" style="display:none;">
	<text transform="matrix(1 0 0 1 -200 0)" style="display:inline; font-family:'MyriadPro-Regular'; font-size:12;">&lt;nyt_prefs&gt;</text>
	<text transform="matrix(1 0 0 1 -200 14.4004)" style="display:inline; font-family:'MyriadPro-Regular'; font-size:12;">  &lt;nyt_prefix&gt;&lt;/nyt_prefix&gt;</text>
	<text transform="matrix(1 0 0 1 -200 28.7998)" style="display:inline; font-family:'MyriadPro-Regular'; font-size:12;">  &lt;nyt_suffix&gt;&lt;/nyt_suffix&gt;</text>
	<text transform="matrix(1 0 0 1 -200 43.2002)" style="display:inline; font-family:'MyriadPro-Regular'; font-size:12;">  &lt;nyt_base_path&gt;~/Desktop/uitfont&lt;/nyt_base_path&gt;</text>
	<text transform="matrix(1 0 0 1 -200 57.5996)" style="display:inline; font-family:'MyriadPro-Regular'; font-size:12;">  &lt;nyt_scaling&gt;100&lt;/nyt_scaling&gt;</text>
	<text transform="matrix(1 0 0 1 -200 72)" style="display:inline; font-family:'MyriadPro-Regular'; font-size:12;">  &lt;nyt_transparency&gt;true&lt;/nyt_transparency&gt;</text>
	<text transform="matrix(1 0 0 1 -200 86.4004)" style="display:inline; font-family:'MyriadPro-Regular'; font-size:12;">  &lt;nyt_embedImage&gt;true&lt;/nyt_embedImage&gt;</text>
	<text transform="matrix(1 0 0 1 -200 100.7998)" style="display:inline; font-family:'MyriadPro-Regular'; font-size:12;">  &lt;nyt_embedFont&gt;true&lt;/nyt_embedFont&gt;</text>
	<text transform="matrix(1 0 0 1 -200 115.2002)" style="display:inline; font-family:'MyriadPro-Regular'; font-size:12;">  &lt;nyt_trimEdges&gt;false&lt;/nyt_trimEdges&gt;</text>
	<text transform="matrix(1 0 0 1 -200 129.5996)" style="display:inline; font-family:'MyriadPro-Regular'; font-size:12;">  &lt;nyt_skipDefaultNames&gt;true&lt;/nyt_skipDefaultNames&gt;</text>
	<text transform="matrix(1 0 0 1 -200 144)" style="display:inline; font-family:'MyriadPro-Regular'; font-size:12;">  &lt;nyt_format&gt;SVG&lt;/nyt_format&gt;</text>
	<text transform="matrix(1 0 0 1 -200 158.4004)" style="display:inline; font-family:'MyriadPro-Regular'; font-size:12;">  &lt;nyt_artboards&gt;all&lt;/nyt_artboards&gt;</text>
	<text transform="matrix(1 0 0 1 -200 172.7998)" style="display:inline; font-family:'MyriadPro-Regular'; font-size:12;">  &lt;nyt_layers&gt;1&lt;/nyt_layers&gt;</text>
	<text transform="matrix(1 0 0 1 -200 187.2002)" style="display:inline; font-family:'MyriadPro-Regular'; font-size:12;">  &lt;nyt_exportArtboards&gt;false&lt;/nyt_exportArtboards&gt;</text>
	<text transform="matrix(1 0 0 1 -200 201.5996)" style="display:inline; font-family:'MyriadPro-Regular'; font-size:12;">  &lt;nyt_ignoreWarnings&gt;false&lt;/nyt_ignoreWarnings&gt;</text>
	<text transform="matrix(1 0 0 1 -200 216)" style="display:inline; font-family:'MyriadPro-Regular'; font-size:12;">&lt;/nyt_prefs&gt;</text>
</g>
</svg>
