<?xml version="1.0" encoding="utf-8"?>
<!-- Generator: Adobe Illustrator 16.0.4, SVG Export Plug-In . SVG Version: 6.00 Build 0)  -->
<!DOCTYPE svg PUBLIC "-//W3C//DTD SVG 1.1//EN" "http://www.w3.org/Graphics/SVG/1.1/DTD/svg11.dtd">
<svg version="1.1" id="Layer_1" xmlns="http://www.w3.org/2000/svg" xmlns:xlink="http://www.w3.org/1999/xlink" x="0px" y="0px"
	 width="230.203px" height="164.17px" viewBox="0 0 230.203 164.17" enable-background="new 0 0 230.203 164.17"
	 xml:space="preserve">
<g>
	<path fill="#231F20" d="M144.403,71.47c-40.8,0-75.3,16.2-83.1,37.2l-7.5,3.601l-10.2,4.5l10.2,4.5l6.6,3c0.9,4.5,3.6,9,7.2,13.199
		l-7.5,9c-2.1-0.6-3.9,0-5.1,1.5c-1.5,2.101-1.5,5.101,0.6,6.601s5.1,1.5,6.6-0.601c1.5-1.5,1.5-3.6,0.6-5.399l7.2-8.7
		c2.1,2.1,4.5,3.9,7.2,6l-3,3.6c-2.1-0.6-3.9,0-5.1,1.5c-1.5,2.101-1.5,5.101,0.6,6.601s5.1,1.5,6.6-0.601
		c1.5-1.5,1.5-3.6,0.6-5.399l3.6-3.9c15.6,10.2,38.7,16.5,65.7,16.5c45.6,0,84-21.3,84-46.8S191.502,71.47,144.403,71.47"/>
	<path fill="#FFFFFF" d="M129.703,92.17c0,0-81.3-76.2-18.3-89.4C174.703-9.83,129.703,92.17,129.703,92.17"/>
	<path fill="#231F20" d="M111.703,1.27c-13.5,2.4-22.2,8.7-24.6,17.7c-7.5,27.3,39.9,72,42,74.1l2.1,1.5l0.9-2.101
		c0.899-2.399,27.3-62.7,9.6-84.899C134.802,0.67,125.203-1.73,111.703,1.27 M89.502,25.57c0-2.1,0-3.9,0.6-5.4
		c2.1-7.5,9.6-12.6,21.6-15c12-2.4,21.3-0.6,26.1,5.4c3.9,5.1,5.4,12,5.4,20.1c0,21.6-11.1,50.4-14.7,58.5
		C121.302,81.07,89.502,48.07,89.502,25.57"/>
	<path fill="#231F20" d="M113.802,11.77c-0.899,0-1.5,0.9-1.5,2.1l15.6,78.3c0,0.9,0.899,1.5,2.1,1.5s1.5-0.899,1.5-2.1l-15.6-78.3
		C115.603,12.37,114.703,11.77,113.802,11.77"/>
	<path fill="#231F20" d="M132.703,15.97l-14.1,25.2c-0.601,0.9,0,2.1,0.6,2.4c0.9,0.6,2.1,0,2.4-0.6l14.1-25.2
		c0.6-0.9,0-2.1-0.6-2.4C134.502,14.77,133.302,14.77,132.703,15.97"/>
	<path fill="#231F20" d="M95.502,30.37c-0.6,0.6-0.6,2.1,0.6,2.4l24.3,19.8c0.6,0.6,2.1,0.6,2.399-0.6c0.601-0.6,0.601-2.1-0.6-2.4
		l-24.3-19.8C97.002,29.47,96.103,29.47,95.502,30.37"/>
	<path fill="#FFFFFF" d="M130.302,89.17c0,0-108-26.1-59.399-68.7C119.203-21.53,130.302,89.17,130.302,89.17"/>
	<path fill="#231F20" d="M69.703,19.27c-10.5,9-14.7,18.6-12.6,27.6c6.6,27.6,70.2,43.5,73.2,43.8l2.4,0.601v-2.4
		c-0.6-2.4-7.2-68.1-33.9-78.3C90.103,7.27,79.903,10.27,69.703,19.27 M60.703,46.27c-0.6-1.5-0.6-2.4-0.6-3.9
		c0-6.6,3.9-13.2,12-20.1c9.6-8.1,18.3-11.1,25.2-8.1c21.6,8.7,29.4,60.601,31.2,72.601C116.802,83.47,65.803,68.77,60.703,46.27"/>
	<line fill="none" x1="130.302" y1="89.17" x2="77.803" y2="28.87"/>
	<line fill="none" x1="97.603" y1="50.17" x2="97.603" y2="21.37"/>
	<line fill="none" x1="103.002" y1="58.27" x2="71.803" y2="53.17"/>
	<path fill="#231F20" d="M131.802,87.97l-32.7-37.2l0,0v-28.8c0-0.9-0.9-1.5-1.5-1.5c-0.9,0-1.5,0.9-1.5,1.5v25.2l-16.2-18.6
		c-0.6-0.6-1.5-0.9-2.4,0c-0.6,0.6-0.9,1.5,0,2.4l22.2,25.2l-26.7-4.5c-0.9,0-2.1,0.6-2.1,1.5c0,0.9,0.6,2.1,1.5,2.1l30.6,5.1
		l26.7,30.3c0.6,0.601,1.5,0.9,2.4,0C132.403,90.07,132.403,88.57,131.802,87.97"/>
	<path fill="#FFFFFF" d="M159.703,84.97c8.7,3.601,17.7,0.9,24.3-4.5c1.5,3.9,4.5,7.2,9,8.7c8.7,3.601,17.7-0.6,21.3-9
		c3.601-8.7-0.6-17.7-9-21.3c-5.1-2.1-10.199-1.5-14.699,0.9c-1.5-7.5-6.601-14.1-14.101-17.1c-11.7-4.5-24.6,0.9-29.399,12.6
		C142.302,67.27,148.002,80.47,159.703,84.97"/>
	<path fill="#231F20" d="M145.302,55.27c-5.1,12.6,0.9,26.7,13.5,31.8l0,0c8.101,3,17.101,2.1,24.301-3.601c2.1,3.601,5.1,6,9,7.5
		c4.5,2.101,9.6,1.5,13.5,0c4.5-2.1,8.1-5.399,9.6-10.199c2.1-4.5,1.5-9.601,0-13.5c-2.1-4.5-5.4-8.1-10.2-9.6
		c-4.5-2.1-9.6-1.5-14.1,0.6c-2.101-7.5-7.2-13.2-14.7-16.2C164.502,36.67,150.103,42.67,145.302,55.27 M147.103,63.67
		c0-2.4,0.6-5.1,1.5-7.5c3.899-10.5,16.5-16.2,27.3-11.7c6.6,2.4,11.7,8.7,12.6,15.6l0.601,2.4l2.1-1.5c3.9-2.4,8.7-3,13.2-0.9
		c3.6,1.5,6.6,3.9,8.1,7.5c1.5,3.6,1.5,7.5,0,11.1c-1.5,3.601-3.899,6.601-7.5,8.101c-3.6,1.5-7.5,1.5-11.1,0
		c-3.601-1.5-6.601-3.9-8.101-7.5l-0.899-2.4l-2.7,2.1c-6,5.4-14.7,7.5-22.2,4.5C151.903,79.87,147.103,72.37,147.103,63.67"/>
	<path fill="#231F20" d="M183.403,65.77c-0.601,3.9-3.9,6.6-8.101,6c-4.199-0.6-6.6-3.9-6-8.1c0.601-3.9,3.9-6.6,8.101-6
		C180.703,58.27,183.703,62.17,183.403,65.77"/>
	<path fill="#231F20" d="M211.002,75.97c-0.6,3.9-3.899,6.601-8.1,6c-4.2-0.6-6.601-3.899-6-8.1c0.6-3.9,3.899-6.6,8.1-6
		S211.603,72.37,211.002,75.97"/>
	<path fill="#231F20" d="M6.103,85.57c-0.6,0-0.9,0.6-1.5,0.899c-3,3-5.1,14.7-4.5,28.2c0,13.5,2.4,25.2,5.4,28.2
		c0.6,0.6,0.9,0.9,1.5,0.9c4.5,0,6.6-15,6.6-29.4C13.303,100.57,10.903,85.57,6.103,85.57 M6.103,141.97c-3-2.399-5.1-14.1-5.1-27.3
		s1.5-24.6,4.5-27.3c0.6-0.6,0.6-0.6,0.9-0.6c2.4,0,6,11.699,6,27.6c0,16.5-2.4,27.6-5.4,27.6
		C6.703,142.57,6.103,142.57,6.103,141.97"/>
	<path fill="#231F20" d="M19.303,95.17c-3,0-4.5,10.2-4.5,19.8c0,9,1.5,16.5,3.6,18.601c0.6,0.6,0.9,0.6,1.5,0.6
		c3,0,4.5-10.2,4.5-19.8C23.803,104.771,22.303,95.17,19.303,95.17 M19.303,132.37c-1.5-1.5-3-8.1-3.6-18.3
		c0-11.7,2.1-18.601,3.6-18.601s3.6,7.2,3.9,18.301c0,11.699-2.1,18.6-3.6,18.6C19.303,132.97,19.303,132.97,19.303,132.37"/>
	<path fill="#231F20" d="M28.903,101.17c-2.4,0-3,8.7-3,13.2c0,6,0.9,11.1,2.4,12.6c0.6,0.601,0.6,0.601,0.9,0.601
		c2.4,0,3-8.7,3-13.2c0-6-0.9-11.1-2.4-12.6C29.502,101.17,28.903,101.17,28.903,101.17 M28.903,126.37c-0.9-0.9-2.1-5.4-2.1-12
		c0-8.1,1.5-12,2.1-12l0,0c0.9,0.9,2.1,5.4,2.1,12C31.303,122.47,29.803,126.37,28.903,126.37L28.903,126.37"/>
	<path fill="#231F20" d="M13.903,88.57c-4.5,0-6.6,15-6.6,29.399c0,14.4,2.4,28.801,7.2,28.801c4.8,0,6.6-15,6.6-29.4
		C20.203,103.271,17.803,88.57,13.903,88.57 M8.203,117.67c0-16.5,2.4-27.6,5.4-27.6s6,11.7,6,27.6c0,16.5-2.4,27.601-5.4,27.601
		C11.803,145.57,8.203,133.87,8.203,117.67"/>
	<path fill="#231F20" d="M26.502,98.17c-0.6,0-0.9,0-1.5,0.601c-2.1,2.1-3.6,9.6-3,18.6c0,9,1.5,16.5,3.6,18.6
		c0.6,0.601,0.9,0.601,1.5,0.601s0.9,0,1.5-0.601c2.1-2.1,3.6-9.6,3-18.6c0-9-1.5-16.5-3.6-18.6
		C27.403,98.17,26.803,98.17,26.502,98.17 M26.502,135.37c-1.5-1.5-3-8.7-3.6-18.3c0-10.2,1.5-16.5,3-18.3l0.6-0.601
		c0,0,0.6,0,0.6,0.601c1.5,1.5,3,8.1,3.6,18.3c0,10.2-1.5,16.5-3,18.3l-0.6,0.6C26.803,135.97,26.502,135.37,26.502,135.37"/>
	<path fill="#231F20" d="M36.103,104.17c-2.4,0-3,8.7-3,13.2s0.9,13.2,3.6,13.2s3-8.101,3-12.601v-0.6c0-6-0.9-11.1-2.4-12.6
		C36.403,104.17,36.403,104.17,36.103,104.17 M34.002,117.37c0-8.1,1.5-12,2.1-12l0,0c0.9,0.9,2.1,5.4,2.1,12l0,0
		c0,7.5-1.5,12-2.1,12S34.002,124.87,34.002,117.37"/>
	<path fill="#FFFFFF" d="M182.802,142.87c-7.199,7.2-22.8,2.1-35.399-10.5c-12.601-12.6-17.101-28.8-10.2-35.7"/>
	<path fill="#231F20" d="M184.903,141.97l-47.4-48l-1.5,1.5l0,0c-3.6,3.601-3.899,9.601-2.1,16.5c2.1,7.2,6.6,14.101,12.6,20.7
		c8.7,8.7,19.2,14.101,27.601,14.101c3.899,0,7.5-0.9,9.6-3.601l0,0L184.903,141.97 M171.703,132.37l-9.6,9c-3.9-2.1-8.7-5.1-12-8.7
		l11.699-11.1L171.703,132.37z M137.502,97.57l10.5,10.5l-9.6,9.6C133.903,109.271,133.302,101.771,137.502,97.57 M139.302,119.771
		l10.2-10.2l10.2,10.5l-11.7,11.1c0,0,0,0-0.6-0.6C144.403,127.271,141.403,123.97,139.302,119.771 M164.502,142.57l8.7-8.7l8.1,8.1
		c-2.1,1.5-4.5,2.4-7.5,2.4S167.502,144.07,164.502,142.57"/>
</g>
</svg>
