<?xml version="1.0" encoding="iso-8859-1"?>
<!-- Generator: Adobe Illustrator 16.0.4, SVG Export Plug-In . SVG Version: 6.00 Build 0)  -->
<!DOCTYPE svg PUBLIC "-//W3C//DTD SVG 1.1//EN" "http://www.w3.org/Graphics/SVG/1.1/DTD/svg11.dtd">
<svg version="1.1" id="Layer_1" xmlns="http://www.w3.org/2000/svg" xmlns:xlink="http://www.w3.org/1999/xlink" x="0px" y="0px"
	 width="141.73px" height="56.69px" viewBox="0 0 141.73 56.69" style="enable-background:new 0 0 141.73 56.69;"
	 xml:space="preserve">
<g>
	<path style="fill:#231F20;" d="M112.198,21.134c-9.193,2.889-15.82,8.983-16.092,14.267l-1.434,1.343l-1.98,1.736l2.617,0.292
		l1.699,0.208c0.521,0.951,1.449,1.773,2.558,2.465l-1.053,2.56c-0.516,0.014-0.879,0.276-1.043,0.699
		c-0.189,0.579,0.022,1.255,0.603,1.444s1.256-0.023,1.445-0.603c0.23-0.444,0.082-0.918-0.248-1.259l1.007-2.471
		c0.622,0.325,1.29,0.561,2.048,0.842l-0.422,1.024c-0.516,0.013-0.879,0.276-1.043,0.698c-0.189,0.58,0.023,1.256,0.603,1.445
		s1.255-0.022,1.444-0.603c0.232-0.444,0.084-0.917-0.246-1.259l0.534-1.135c4.238,1.194,9.889,0.979,15.974-0.934
		c10.276-3.229,17.421-10.748,15.615-16.495C132.979,19.655,122.812,17.799,112.198,21.134"/>
	<path style="fill:#FFFFFF;" d="M110.353,26.84c0,0-23.717-11.414-10.455-18.85C113.271,0.668,110.353,26.84,110.353,26.84"/>
	<path style="fill:#231F20;" d="M99.859,7.63c-2.872,1.497-4.386,3.533-4.29,5.731c0.243,6.683,14.09,13.399,14.712,13.724
		l0.579,0.189l0.055-0.537c0.032-0.605,1.711-16.062-3.849-19.812C105.022,5.86,102.688,5.999,99.859,7.63 M96.577,14.679
		c-0.148-0.473-0.275-0.878-0.247-1.259c-0.058-1.839,1.271-3.52,3.806-4.91c2.534-1.391,4.758-1.643,6.264-0.631
		c1.24,0.873,2.066,2.321,2.64,4.147c1.53,4.867,1.068,12.142,0.83,14.223C107.673,24.934,98.171,19.749,96.577,14.679"/>
	<path style="fill:#231F20;" d="M101.076,9.848c-0.202,0.063-0.274,0.309-0.188,0.58l9.06,16.539c0.063,0.203,0.31,0.274,0.579,0.19
		c0.271-0.085,0.273-0.31,0.188-0.58l-9.06-16.54C101.524,9.856,101.279,9.784,101.076,9.848"/>
	<path style="fill:#231F20;" d="M105.632,9.457l-1.393,6.677c-0.07,0.246,0.148,0.473,0.306,0.499
		c0.245,0.071,0.474-0.148,0.499-0.305l1.392-6.677c0.073-0.245-0.148-0.474-0.305-0.498C105.953,9.059,105.683,9.144,105.632,9.457
		"/>
	<path style="fill:#231F20;" d="M98.27,15.335c-0.093,0.178,0.013,0.516,0.306,0.499l6.878,2.741
		c0.177,0.093,0.516-0.014,0.498-0.305c0.093-0.178-0.014-0.516-0.306-0.499l-6.877-2.741C98.544,15.026,98.341,15.09,98.27,15.335"
		/>
	<path style="fill:#FFFFFF;" d="M110.275,26.121c0,0-26.186,1.766-18.251-11.275C99.935,1.962,110.275,26.121,110.275,26.121"/>
	<path style="fill:#231F20;" d="M91.67,14.661c-1.729,2.772-1.995,5.232-0.886,7.112c3.441,5.752,18.899,4.832,19.597,4.686
		l0.583-0.034l-0.17-0.541c-0.304-0.499-6.443-14.836-13.183-15.244C95.417,10.513,93.331,11.91,91.67,14.661 M91.554,21.383
		c-0.242-0.296-0.305-0.499-0.411-0.836c-0.468-1.488-0.057-3.251,1.28-5.379c1.59-2.505,3.338-3.797,5.105-3.61
		c5.482,0.431,10.916,11.573,12.171,14.15C106.829,25.793,94.296,26.092,91.554,21.383"/>
	<line style="fill:none;" x1="110.275" y1="26.121" x2="94.175" y2="16.25"/>
	<line style="fill:none;" x1="100.145" y1="19.648" x2="98.104" y2="13.159"/>
	<line style="fill:none;" x1="101.935" y1="21.091" x2="94.544" y2="22.151"/>
	<path style="fill:#231F20;" d="M110.528,25.745l-10.003-6.068l0,0l-2.04-6.49c-0.062-0.202-0.309-0.274-0.443-0.232
		c-0.203,0.063-0.274,0.309-0.232,0.444l1.785,5.679l-4.968-3.044c-0.178-0.092-0.402-0.097-0.541,0.17
		c-0.093,0.178-0.097,0.401,0.17,0.541l6.786,4.106l-6.334,0.877c-0.203,0.063-0.432,0.284-0.367,0.487
		c0.063,0.203,0.283,0.431,0.486,0.367l7.257-1.018l8.162,4.938c0.178,0.093,0.402,0.097,0.541-0.17
		C110.812,26.176,110.706,25.837,110.528,25.745"/>
	<path style="fill:#FFFFFF;" d="M116.604,23.094c2.215,0.194,4.051-1.051,5.156-2.735c0.614,0.772,1.525,1.304,2.645,1.323
		c2.215,0.195,3.946-1.388,4.163-3.536c0.194-2.216-1.39-3.946-3.537-4.163c-1.297-0.112-2.404,0.384-3.248,1.243
		c-0.87-1.583-2.486-2.709-4.389-2.855c-2.955-0.185-5.48,1.945-5.732,4.922C111.428,20.336,113.648,22.907,116.604,23.094"/>
	<path style="fill:#231F20;" d="M111.255,17.42c-0.258,3.2,2.094,5.953,5.294,6.209l0,0c2.038,0.103,4.002-0.738,5.221-2.531
		c0.729,0.662,1.574,0.99,2.56,1.053c1.162,0.155,2.27-0.342,3.043-0.957c0.864-0.792,1.441-1.79,1.44-2.978
		c0.154-1.163-0.343-2.269-0.956-3.042c-0.792-0.865-1.79-1.443-2.979-1.441c-1.163-0.155-2.271,0.341-3.135,1.133
		c-1.005-1.542-2.558-2.464-4.46-2.609C114.264,11.869,111.444,14.241,111.255,17.42 M112.256,19.186
		c-0.17-0.542-0.227-1.192-0.194-1.797c0.137-2.642,2.572-4.819,5.324-4.57c1.657,0.074,3.253,1.133,3.944,2.624l0.304,0.498
		l0.367-0.487c0.71-0.817,1.749-1.292,2.911-1.137c0.918,0.083,1.765,0.411,2.356,1.117c0.593,0.705,0.869,1.583,0.786,2.501
		c-0.083,0.917-0.411,1.763-1.116,2.356c-0.704,0.593-1.584,0.87-2.501,0.786c-0.919-0.083-1.764-0.411-2.357-1.116l-0.373-0.478
		l-0.458,0.664c-0.971,1.642-2.782,2.731-4.685,2.587C114.483,22.497,112.872,21.146,112.256,19.186"/>
	<path style="fill:#231F20;" d="M120.584,17.088c0.141,0.922-0.412,1.764-1.401,1.926c-0.988,0.163-1.763-0.412-1.924-1.4
		c-0.143-0.922,0.41-1.764,1.399-1.926C119.443,15.589,120.396,16.256,120.584,17.088"/>
	<path style="fill:#231F20;" d="M127.526,17.433c0.14,0.921-0.412,1.763-1.401,1.926c-0.989,0.162-1.763-0.412-1.926-1.4
		c-0.141-0.922,0.411-1.764,1.4-1.926C126.589,15.87,127.405,16.579,127.526,17.433"/>
	<path style="fill:#FFFFFF;" d="M125.907,34.505c-1.111,2.133-4.988,2.088-8.72,0.141s-5.893-5.279-4.826-7.323"/>
	<path style="fill:#231F20;" d="M126.317,34.154l-14.08-7.462l-0.231,0.445l0,0c-0.557,1.066-0.199,2.438,0.695,3.866
		c0.983,1.475,2.485,2.711,4.305,3.773c2.577,1.344,5.325,1.817,7.218,1.223c0.88-0.276,1.626-0.733,1.908-1.491l0,0L126.317,34.154
		 M122.663,32.924l-1.525,2.708c-1.028-0.196-2.321-0.532-3.32-1.11l1.851-3.329L122.663,32.924z M112.493,27.504l3.109,1.623
		l-1.483,2.843C112.51,30.396,111.844,28.748,112.493,27.504 M114.47,32.38l1.576-3.021l3.043,1.643l-1.851,3.33
		c0,0,0,0-0.179-0.092C116.15,33.709,115.241,33.178,114.47,32.38 M121.763,35.733l1.345-2.577l2.399,1.252
		c-0.367,0.486-0.844,0.859-1.521,1.072C123.311,35.692,122.546,35.858,121.763,35.733"/>
</g>
<g>
	<g>
		<path style="fill:#231F20;" d="M-14.696,36.505l-0.858-0.514c0.529-0.883,1.077-1.742,1.628-2.555l0.827,0.562
			C-13.64,34.795-14.177,35.639-14.696,36.505z"/>
	</g>
	<g>
		<path style="fill:#231F20;" d="M58.95,47.477c-2.688-0.282-4.014-1.05-5.729-2.188l0.553-0.834c1.64,1.089,2.813,1.768,5.28,2.027
			L58.95,47.477z M65.021,47.467l-0.065-0.998c1.496-0.098,3.21-0.25,5.242-0.466l0.708-0.079l0.115,0.994l-0.718,0.079
			C68.257,47.215,66.529,47.368,65.021,47.467z M76.987,45.942l-0.209-0.979c2.016-0.432,3.941-0.962,5.724-1.576l0.326,0.945
			C81.008,44.96,79.043,45.502,76.987,45.942z M48.123,42.319c-1.608-0.76-3.412-1.468-5.514-2.166l0.315-0.949
			c2.141,0.711,3.981,1.435,5.625,2.211L48.123,42.319z M36.893,38.483c-1.77-0.46-3.725-0.922-5.812-1.371l0.211-0.979
			c2.101,0.453,4.07,0.918,5.854,1.383L36.893,38.483z M25.391,34.838c-1.382-0.83-2.919-1.893-4.983-3.443l0.601-0.799
			c2.036,1.529,3.546,2.573,4.897,3.385L25.391,34.838z M-9.459,29.311l-0.745-0.666c1.44-1.611,2.93-3.015,4.429-4.173l0.611,0.791
			C-6.615,26.383-8.06,27.746-9.459,29.311z M15.631,27.748c-1.358-1.027-3.14-2.345-4.875-3.435l0.531-0.847
			c1.768,1.109,3.572,2.444,4.946,3.483L15.631,27.748z M-0.113,22.359l-0.346-0.757C0.953,21.082,2.33,21,3.633,21
			c0.001,0,0.002,0,0.003,0c0.24,0,0.478-0.173,0.714-0.155c0.433,0.033,0.893,0.016,1.366,0.129l-0.232,0.927
			c-0.421-0.101-0.828-0.189-1.209-0.218c-0.212-0.017-0.431,0.003-0.642-0.036C2.448,21.648,1.188,21.88-0.113,22.359z"/>
	</g>
	<g>
		<path style="fill:#231F20;" d="M88.501,41.841l-0.488-0.873c1.631-0.913,2.397-1.585,2.405-1.592l0.664,0.747
			C91.049,40.153,90.239,40.867,88.501,41.841z"/>
	</g>
</g>
</svg>
