<?xml version="1.0" encoding="iso-8859-1"?>
<!-- Generator: Adobe Illustrator 16.0.4, SVG Export Plug-In . SVG Version: 6.00 Build 0)  -->
<!DOCTYPE svg PUBLIC "-//W3C//DTD SVG 1.1//EN" "http://www.w3.org/Graphics/SVG/1.1/DTD/svg11.dtd">
<svg version="1.1" id="Layer_1" xmlns="http://www.w3.org/2000/svg" xmlns:xlink="http://www.w3.org/1999/xlink" x="0px" y="0px"
	 width="12px" height="15px" viewBox="0 0 12 15" style="enable-background:new 0 0 12 15;" xml:space="preserve">
<g id="Layer_1_2_">
	<g>
		<path d="M1.767,8.868c-0.102,0-0.197-0.05-0.256-0.137C1.433,8.612,1.446,8.457,1.543,8.353C2.292,7.554,3.148,6.58,3.292,6.331
			V3.486c0-0.648,0.527-1.175,1.176-1.175h5.356C10.472,2.311,11,2.838,11,3.486v3.229c0,0.649-0.528,1.176-1.176,1.176H4.724
			C4.536,7.914,3.121,8.397,1.87,8.851C1.838,8.862,1.802,8.868,1.767,8.868z M4.468,2.924c-0.31,0-0.562,0.252-0.562,0.562v2.898
			c0,0.106,0,0.271-1.076,1.474c0.9-0.313,1.712-0.579,1.895-0.579h5.101c0.31,0,0.562-0.252,0.562-0.562v-3.23
			c0-0.31-0.253-0.562-0.562-0.562H4.468z"/>
	</g>
</g>
</svg>
