<?xml version="1.0" encoding="utf-8"?>
<!-- Generator: Adobe Illustrator 16.0.4, SVG Export Plug-In . SVG Version: 6.00 Build 0)  -->
<!DOCTYPE svg PUBLIC "-//W3C//DTD SVG 1.1//EN" "http://www.w3.org/Graphics/SVG/1.1/DTD/svg11.dtd">
<svg version="1.1" id="Layer_1" xmlns="http://www.w3.org/2000/svg" xmlns:xlink="http://www.w3.org/1999/xlink" x="0px" y="0px"
	 width="32px" height="11px" viewBox="0 10.25 32 11" enable-background="new 0 10.25 32 11" xml:space="preserve">
<path fill="#1D1D1B" d="M4.283,16.609c0,0.505-0.053,0.91-0.439,1.271c-0.345,0.324-0.767,0.438-1.188,0.475
	c-0.368,0.031-0.849-0.023-1.159-0.242c-0.427-0.309-0.51-0.766-0.51-1.346v-3.21l1.254,0.104v2.907
	c0,0.156-0.007,0.367,0.075,0.508c0.094,0.146,0.282,0.195,0.438,0.189c0.142-0.008,0.316-0.061,0.422-0.171
	c0.159-0.157,0.141-0.393,0.141-0.601V13.75l0.966,0.081V16.609z"/>
<polygon fill="#1D1D1B" points="4.664,18.1 5.824,18.003 5.824,15.232 4.664,15.196 "/>
<polygon fill="#1D1D1B" points="4.664,13.864 4.664,14.866 5.824,14.918 5.824,13.961 "/>
<polygon fill="#1D1D1B" points="8.135,17.831 6.964,17.93 6.964,14.988 6.122,14.951 6.122,13.986 8.961,14.223 8.961,15.074 
	8.135,15.039 "/>
<polygon fill="#1D1D1B" points="0,12.271 12.386,12.271 12.386,19.729 0,19.729 9.908,18.484 9.908,13.514 "/>
<path fill="#777777" d="M25.316,17.564c0.402,1.619,1.793,2.271,3.356,2.271c1.544,0,3.326-0.717,3.326-2.51
	c0-0.815-0.381-1.511-1.108-1.901c-0.652-0.337-1.402-0.457-2.107-0.599c-0.282-0.064-0.826-0.141-0.826-0.532
	s0.436-0.478,0.738-0.478c0.576,0,0.99,0.195,1.207,0.749l1.892-0.575c-0.456-1.293-1.707-1.826-2.999-1.826
	c-0.74,0-1.531,0.142-2.141,0.565c-0.598,0.424-0.956,1.141-0.956,1.869c0,1.771,1.661,2.151,3.063,2.424
	c0.336,0.063,0.913,0.15,0.913,0.606c0,0.413-0.588,0.457-0.881,0.457c-0.663,0-1.163-0.239-1.358-0.901L25.316,17.564z"/>
<g>
	<path fill="#777777" d="M22.84,12.272h-2.412l-2.314,7.455h1.857l0.457-1.468h1.988l0.424,1.468h2.336L22.84,12.272z M20.807,16.63
		l0.609-2.162l0.609,2.162H20.807z"/>
</g>
<g>
	<path fill="#777777" d="M17.611,12.664c-0.641-0.37-1.454-0.392-2.183-0.392h-3.043v7.455H14.7v-2.705h1.162
		c0.717,0,1.457-0.108,2.033-0.576c0.554-0.447,0.824-1.12,0.824-1.826C18.721,13.816,18.311,13.077,17.611,12.664z M15.299,15.425
		h-0.598V13.98h0.663c0.521,0,1.086,0.054,1.086,0.717C16.45,15.392,15.82,15.425,15.299,15.425z"/>
</g>
<g id="nyt_x5F_exporter_x5F_info" display="none">
	<text transform="matrix(1 0 0 1 -80 0)" display="inline" font-family="'MyriadPro-Regular'" font-size="12">&lt;nyt_prefs&gt;</text>
	<text transform="matrix(1 0 0 1 -80 14.4004)" display="inline" font-family="'MyriadPro-Regular'" font-size="12">  &lt;nyt_prefix&gt;&lt;/nyt_prefix&gt;</text>
	<text transform="matrix(1 0 0 1 -80 28.7998)" display="inline" font-family="'MyriadPro-Regular'" font-size="12">  &lt;nyt_suffix&gt;&lt;/nyt_suffix&gt;</text>
	<text transform="matrix(1 0 0 1 -80 43.2002)" display="inline" font-family="'MyriadPro-Regular'" font-size="12">  &lt;nyt_base_path&gt;~/Desktop/uitfont&lt;/nyt_base_path&gt;</text>
	<text transform="matrix(1 0 0 1 -80 57.5996)" display="inline" font-family="'MyriadPro-Regular'" font-size="12">  &lt;nyt_scaling&gt;100&lt;/nyt_scaling&gt;</text>
	<text transform="matrix(1 0 0 1 -80 72)" display="inline" font-family="'MyriadPro-Regular'" font-size="12">  &lt;nyt_transparency&gt;true&lt;/nyt_transparency&gt;</text>
	<text transform="matrix(1 0 0 1 -80 86.4004)" display="inline" font-family="'MyriadPro-Regular'" font-size="12">  &lt;nyt_embedImage&gt;true&lt;/nyt_embedImage&gt;</text>
	<text transform="matrix(1 0 0 1 -80 100.7998)" display="inline" font-family="'MyriadPro-Regular'" font-size="12">  &lt;nyt_embedFont&gt;true&lt;/nyt_embedFont&gt;</text>
	<text transform="matrix(1 0 0 1 -80 115.2002)" display="inline" font-family="'MyriadPro-Regular'" font-size="12">  &lt;nyt_trimEdges&gt;false&lt;/nyt_trimEdges&gt;</text>
	<text transform="matrix(1 0 0 1 -80 129.5996)" display="inline" font-family="'MyriadPro-Regular'" font-size="12">  &lt;nyt_skipDefaultNames&gt;true&lt;/nyt_skipDefaultNames&gt;</text>
	<text transform="matrix(1 0 0 1 -80 144)" display="inline" font-family="'MyriadPro-Regular'" font-size="12">  &lt;nyt_format&gt;SVG&lt;/nyt_format&gt;</text>
	<text transform="matrix(1 0 0 1 -80 158.4004)" display="inline" font-family="'MyriadPro-Regular'" font-size="12">  &lt;nyt_artboards&gt;all&lt;/nyt_artboards&gt;</text>
	<text transform="matrix(1 0 0 1 -80 172.7998)" display="inline" font-family="'MyriadPro-Regular'" font-size="12">  &lt;nyt_layers&gt;1&lt;/nyt_layers&gt;</text>
	<text transform="matrix(1 0 0 1 -80 187.2002)" display="inline" font-family="'MyriadPro-Regular'" font-size="12">  &lt;nyt_exportArtboards&gt;false&lt;/nyt_exportArtboards&gt;</text>
	<text transform="matrix(1 0 0 1 -80 201.5996)" display="inline" font-family="'MyriadPro-Regular'" font-size="12">  &lt;nyt_ignoreWarnings&gt;false&lt;/nyt_ignoreWarnings&gt;</text>
	<text transform="matrix(1 0 0 1 -80 216)" display="inline" font-family="'MyriadPro-Regular'" font-size="12">&lt;/nyt_prefs&gt;</text>
</g>
</svg>
